<svg width="25" height="25" viewBox="0 0 25 25" fill="none" xmlns="http://www.w3.org/2000/svg">
<path d="M19.4729 18.4522H5.18619C4.62259 18.4522 4.16571 18.9087 4.16571 19.4718C4.16571 20.0349 4.62259 20.4913 5.18619 20.4913H19.4729C20.0365 20.4913 20.4933 20.0349 20.4933 19.4718C20.4933 18.9087 20.0365 18.4522 19.4729 18.4522Z" fill="#636363"/>
<path d="M4.16571 17.4326V19.4718C4.16571 20.0349 4.62259 20.4913 5.18619 20.4913C5.74978 20.4913 6.20667 20.0349 6.20667 19.4718V17.4326C6.20667 16.8696 5.74978 16.4131 5.18619 16.4131C4.62259 16.4131 4.16571 16.8696 4.16571 17.4326Z" fill="#636363"/>
<path d="M18.4524 17.4326V19.4718C18.4524 20.0349 18.9093 20.4913 19.4729 20.4913C20.0365 20.4913 20.4933 20.0349 20.4933 19.4718V17.4326C20.4933 16.8696 20.0365 16.4131 19.4729 16.4131C18.9093 16.4131 18.4524 16.8696 18.4524 17.4326Z" fill="#636363"/>
<path d="M12.3295 15.3935C12.118 15.3951 11.9111 15.331 11.7377 15.21L7.65575 12.3348C7.43575 12.1789 7.28649 11.9423 7.24059 11.6767C7.1947 11.4112 7.25591 11.1383 7.41084 10.9177C7.48818 10.8074 7.58661 10.7135 7.70046 10.6415C7.8143 10.5694 7.9413 10.5206 8.07413 10.4978C8.20696 10.4751 8.34299 10.4789 8.47435 10.5089C8.60572 10.539 8.72982 10.5947 8.83951 10.673L12.3295 13.1097L15.7992 10.4996C16.0157 10.3374 16.2878 10.2677 16.5558 10.306C16.8237 10.3442 17.0654 10.4872 17.2278 10.7035C17.3902 10.9199 17.4599 11.1918 17.4217 11.4595C17.3834 11.7272 17.2403 11.9687 17.0237 12.1309L12.9418 15.1896C12.7652 15.322 12.5503 15.3935 12.3295 15.3935Z" fill="#636363"/>
<path d="M12.3296 13.3544C12.0589 13.3544 11.7993 13.247 11.608 13.0558C11.4166 12.8646 11.3091 12.6053 11.3091 12.3349V4.17838C11.3091 3.90797 11.4166 3.64864 11.608 3.45744C11.7993 3.26623 12.0589 3.15881 12.3296 3.15881C12.6002 3.15881 12.8598 3.26623 13.0511 3.45744C13.2425 3.64864 13.35 3.90797 13.35 4.17838V12.3349C13.35 12.6053 13.2425 12.8646 13.0511 13.0558C12.8598 13.247 12.6002 13.3544 12.3296 13.3544Z" fill="#636363"/>
</svg>
