<svg width="21" height="19" viewBox="0 0 21 19" fill="none" xmlns="http://www.w3.org/2000/svg">
<path d="M2.625 0C1.17525 0 0 1.17525 0 2.625C0 4.07475 1.17525 5.25 2.625 5.25H18.375C19.8248 5.25 21 4.07475 21 2.625C21 1.17525 19.8248 0 18.375 0H2.625Z" fill="#4A5568"/>
<path fill-rule="evenodd" clip-rule="evenodd" d="M1.3125 6.5625H19.6875V15.75C19.6875 17.1998 18.5123 18.375 17.0625 18.375H3.9375C2.48775 18.375 1.3125 17.1998 1.3125 15.75V6.5625ZM7.875 10.5C7.875 9.77511 8.46263 9.1875 9.1875 9.1875H11.8125C12.5374 9.1875 13.125 9.77511 13.125 10.5C13.125 11.2249 12.5374 11.8125 11.8125 11.8125H9.1875C8.46263 11.8125 7.875 11.2249 7.875 10.5Z" fill="#4A5568"/>
</svg>
