<svg width="21" height="23" viewBox="0 0 21 23" fill="none" xmlns="http://www.w3.org/2000/svg">
<path d="M11.4281 1.10878C10.9156 0.574865 10.0845 0.574865 9.57193 1.10878L0.384419 10.6791C-0.12814 11.213 -0.12814 12.0787 0.384419 12.6126C0.89699 13.1465 1.72801 13.1465 2.24059 12.6126L2.625 12.2122V21.2162C2.625 21.9713 3.21264 22.5834 3.93751 22.5834H6.56251C7.28738 22.5834 7.87501 21.9713 7.87501 21.2162V18.4818C7.87501 17.7267 8.46265 17.1146 9.18751 17.1146H11.8125C12.5374 17.1146 13.125 17.7267 13.125 18.4818V21.2162C13.125 21.9713 13.7126 22.5834 14.4375 22.5834H17.0625C17.7874 22.5834 18.375 21.9713 18.375 21.2162V12.2122L18.7595 12.6126C19.272 13.1465 20.1031 13.1465 20.6156 12.6126C21.1281 12.0787 21.1281 11.213 20.6156 10.6791L11.4281 1.10878Z" fill="#4A5568"/>
</svg>
