<svg width="21" height="20" viewBox="0 0 21 20" fill="none" xmlns="http://www.w3.org/2000/svg">
<path d="M2.625 0.208344C1.17525 0.208344 0 1.43256 0 2.94272C0 4.45287 1.17525 5.67709 2.625 5.67709H18.375C19.8248 5.67709 21 4.45287 21 2.94272C21 1.43256 19.8248 0.208344 18.375 0.208344H2.625Z" fill="#4A5568"/>
<path fill-rule="evenodd" clip-rule="evenodd" d="M1.3125 7.04427H19.6875V16.6146C19.6875 18.1248 18.5123 19.349 17.0625 19.349H3.9375C2.48775 19.349 1.3125 18.1248 1.3125 16.6146V7.04427ZM7.875 11.1458C7.875 10.3907 8.46263 9.77864 9.1875 9.77864H11.8125C12.5374 9.77864 13.125 10.3907 13.125 11.1458C13.125 11.9009 12.5374 12.513 11.8125 12.513H9.1875C8.46263 12.513 7.875 11.9009 7.875 11.1458Z" fill="#4A5568"/>
</svg>
